<?xml version="1.0" encoding="UTF-8" standalone="no"?>
<svg
   xmlns:dc="http://purl.org/dc/elements/1.1/"
   xmlns:cc="http://creativecommons.org/ns#"
   xmlns:rdf="http://www.w3.org/1999/02/22-rdf-syntax-ns#"
   xmlns:svg="http://www.w3.org/2000/svg"
   xmlns="http://www.w3.org/2000/svg"
   xmlns:sodipodi="http://sodipodi.sourceforge.net/DTD/sodipodi-0.dtd"
   xmlns:inkscape="http://www.inkscape.org/namespaces/inkscape"
   inkscape:export-ydpi="1977.6"
   inkscape:export-xdpi="1977.6"
   inkscape:export-filename="/Users/mike.xiao/Documents/GitHub/DBT_applet2/images/png/negative_thoughts.png"
   sodipodi:docname="panick.svg"
   inkscape:version="1.0beta2 (2b71d25, 2019-12-03)"
   id="svg870"
   version="1.1"
   viewBox="0 0 7.9375 7.9375004"
   height="30"
   width="30">
  <defs
     id="defs864" />
  <sodipodi:namedview
     showguides="false"
     inkscape:window-maximized="0"
     inkscape:window-y="46"
     inkscape:window-x="120"
     inkscape:window-height="1208"
     inkscape:window-width="1950"
     units="px"
     showgrid="false"
     inkscape:document-rotation="0"
     inkscape:current-layer="layer1"
     inkscape:document-units="mm"
     inkscape:cy="15"
     inkscape:cx="18.770287"
     inkscape:zoom="20"
     inkscape:pageshadow="2"
     inkscape:pageopacity="0.0"
     borderopacity="1.0"
     bordercolor="#666666"
     pagecolor="#ffffff"
     id="base" />
  <metadata
     id="metadata867">
    <rdf:RDF>
      <cc:Work
         rdf:about="">
        <dc:format>image/svg+xml</dc:format>
        <dc:type
           rdf:resource="http://purl.org/dc/dcmitype/StillImage" />
        <dc:title />
      </cc:Work>
    </rdf:RDF>
  </metadata>
  <g
     id="layer1"
     inkscape:groupmode="layer"
     inkscape:label="Layer 1">
    <circle
       inkscape:export-ydpi="98.742859"
       inkscape:export-xdpi="98.742859"
       r="3.8364584"
       cy="3.97843"
       cx="4.0039864"
       id="path2291-7-0"
       style="opacity:0.996117;fill:#ff7f2a;fill-opacity:1;stroke-width:0.459604;stroke-linecap:round;stroke-linejoin:round;paint-order:stroke fill markers" />
    <path
       transform="scale(0.26458333)"
       d="M 6.1640625 26.429688 A 14.500001 14.500001 0 0 0 6.2304688 26.482422 A 14.500001 14.500001 0 0 0 6.4863281 26.677734 A 14.500001 14.500001 0 0 0 6.7441406 26.865234 A 14.500001 14.500001 0 0 0 7.0078125 27.048828 A 14.500001 14.500001 0 0 0 7.2753906 27.224609 A 14.500001 14.500001 0 0 0 7.5449219 27.396484 A 14.500001 14.500001 0 0 0 7.8203125 27.560547 A 14.500001 14.500001 0 0 0 8.0976562 27.71875 A 14.500001 14.500001 0 0 0 8.3789062 27.873047 A 14.500001 14.500001 0 0 0 8.6640625 28.019531 A 14.500001 14.500001 0 0 0 8.9511719 28.158203 A 14.500001 14.500001 0 0 0 9.2421875 28.292969 A 14.500001 14.500001 0 0 0 9.5371094 28.419922 A 14.500001 14.500001 0 0 0 9.8339844 28.541016 A 14.500001 14.500001 0 0 0 10.132812 28.654297 A 14.500001 14.500001 0 0 0 10.433594 28.761719 A 14.500001 14.500001 0 0 0 10.738281 28.863281 A 14.500001 14.500001 0 0 0 11.044922 28.957031 A 14.500001 14.500001 0 0 0 11.351562 29.042969 A 14.500001 14.500001 0 0 0 11.662109 29.125 A 14.500001 14.500001 0 0 0 11.974609 29.197266 A 14.500001 14.500001 0 0 0 12.287109 29.263672 A 14.500001 14.500001 0 0 0 12.601562 29.324219 A 14.500001 14.500001 0 0 0 12.917969 29.376953 A 14.500001 14.500001 0 0 0 13.234375 29.423828 A 14.500001 14.500001 0 0 0 13.552734 29.460938 A 14.500001 14.500001 0 0 0 13.871094 29.494141 A 14.500001 14.500001 0 0 0 14.189453 29.517578 A 14.500001 14.500001 0 0 0 14.509766 29.535156 A 14.500001 14.500001 0 0 0 14.830078 29.546875 A 14.500001 14.500001 0 0 0 15.150391 29.550781 A 14.500001 14.500001 0 0 0 15.191406 29.550781 A 14.500001 14.500001 0 0 0 15.511719 29.544922 A 14.500001 14.500001 0 0 0 15.832031 29.533203 A 14.500001 14.500001 0 0 0 16.152344 29.515625 A 14.500001 14.500001 0 0 0 16.470703 29.490234 A 14.500001 14.500001 0 0 0 16.789062 29.457031 A 14.500001 14.500001 0 0 0 17.107422 29.417969 A 14.500001 14.500001 0 0 0 17.423828 29.371094 A 14.500001 14.500001 0 0 0 17.740234 29.316406 A 14.500001 14.500001 0 0 0 18.054688 29.255859 A 14.500001 14.500001 0 0 0 18.367188 29.189453 A 14.500001 14.500001 0 0 0 18.677734 29.113281 A 14.500001 14.500001 0 0 0 18.988281 29.033203 A 14.500001 14.500001 0 0 0 19.296875 28.945312 A 14.500001 14.500001 0 0 0 19.601562 28.849609 A 14.500001 14.500001 0 0 0 19.90625 28.748047 A 14.500001 14.500001 0 0 0 20.207031 28.640625 A 14.500001 14.500001 0 0 0 20.505859 28.525391 A 14.500001 14.500001 0 0 0 20.802734 28.402344 A 14.500001 14.500001 0 0 0 21.095703 28.275391 A 14.500001 14.500001 0 0 0 21.386719 28.140625 A 14.500001 14.500001 0 0 0 21.673828 28 A 14.500001 14.500001 0 0 0 21.957031 27.851562 A 14.500001 14.500001 0 0 0 22.238281 27.699219 A 14.500001 14.500001 0 0 0 22.515625 27.539062 A 14.500001 14.500001 0 0 0 22.791016 27.373047 A 14.500001 14.500001 0 0 0 23.060547 27.201172 A 14.500001 14.500001 0 0 0 23.326172 27.023438 A 14.500001 14.500001 0 0 0 23.589844 26.841797 A 14.500001 14.500001 0 0 0 23.847656 26.652344 A 14.500001 14.500001 0 0 0 24.101562 26.457031 A 14.500001 14.500001 0 0 0 24.185547 26.390625 L 20.900391 23.869141 L 9.5 23.869141 L 6.1640625 26.429688 z "
       style="fill:#383838;fill-opacity:0.25;stroke:none;stroke-width:0.99999899999999997px;stroke-linecap:butt;stroke-linejoin:miter;stroke-opacity:1"
       id="path952" />
    <g
       transform="matrix(0.01090373,0,0,0.01090373,1.2121306,0.9678903)"
       id="g885">
      <path
         style="fill:#ff293d;fill-opacity:1"
         inkscape:connector-curvature="0"
         d="m 387.03,251.03 v 103.95 l -12.7,13.35 H 139 L 124.97,354.98 V 251.03 c 0,-36.19 14.67,-68.94 38.38,-92.65 C 187.06,134.66 219.82,120 256,120 c 72.36,0 131.03,58.66 131.03,131.03 z"
         fill="#ff641a"
         id="path849" />
      <path
         inkscape:connector-curvature="0"
         d="m 387.03,251.03 v 103.95 l -12.7,13.35 H 256 V 120 c 72.36,0 131.03,58.66 131.03,131.03 z"
         fill="#ea0016"
         id="path851" />
      <path
         inkscape:connector-curvature="0"
         d="M 124.97,354.98 H 387.03 V 447 H 124.97 Z"
         fill="#48588b"
         id="path853" />
      <path
         inkscape:connector-curvature="0"
         d="M 256,354.98 H 387.03 V 447 H 256 Z"
         fill="#3c4a83"
         id="path855" />
      <path
         style="fill:#fbe200;fill-opacity:1"
         inkscape:connector-curvature="0"
         d="m 241,0 h 30 v 72.03 h -30 z"
         fill="#fbe200"
         id="path857" />
      <path
         style="fill:#febf01;fill-opacity:1"
         inkscape:connector-curvature="0"
         d="m 256,0 h 15 v 72.03 h -15 z"
         fill="#febf01"
         id="path859" />
      <g
         id="g871">
        <path
           style="fill:#febf01;fill-opacity:1"
           inkscape:connector-curvature="0"
           d="m 305.354,34.676 h 72.033 v 30 h -72.033 z"
           fill="#febf01"
           transform="matrix(0.372,-0.928,0.928,0.372,168.35,348.115)"
           id="path861" />
        <path
           style="fill:#febf01;fill-opacity:1"
           inkscape:connector-curvature="0"
           d="m 376.269,81.01 h 72.033 v 30 h -72.033 z"
           fill="#febf01"
           transform="matrix(0.674,-0.739,0.739,0.674,63.554,335.976)"
           id="path863" />
        <g
           fill="#fbe200"
           id="g869">
          <path
             style="fill:#fbe200;fill-opacity:1"
             inkscape:connector-curvature="0"
             d="m 155.63,13.66 h 30 v 72.033 h -30 z"
             transform="matrix(0.928,-0.372,0.372,0.928,-6.238,66.996)"
             id="path865" />
          <path
             style="fill:#fbe200;fill-opacity:1"
             inkscape:connector-curvature="0"
             d="m 84.714,59.994 h 30 v 72.033 h -30 z"
             transform="matrix(0.739,-0.674,0.674,0.739,-38.658,92.251)"
             id="path867" />
        </g>
      </g>
      <path
         inkscape:connector-curvature="0"
         d="m 241,183 h 30 v 81.33 h -30 z"
         fill="#fbe200"
         id="path873" />
      <path
         inkscape:connector-curvature="0"
         d="m 256,183 h 15 v 81.33 h -15 z"
         fill="#febf01"
         id="path875" />
      <path
         inkscape:connector-curvature="0"
         d="m 241,285 h 30 v 30 h -30 z"
         fill="#fbe200"
         id="path881" />
      <path
         inkscape:connector-curvature="0"
         d="m 256,285 h 15 v 30 h -15 z"
         fill="#febf01"
         id="path883" />
      <path
         inkscape:connector-curvature="0"
         d="M 422.76,458.98 V 512 H 89.24 v -53.02 c 0,-19.76 16.02,-35.78 35.78,-35.78 h 261.96 c 19.76,0 35.78,16.02 35.78,35.78 z"
         fill="#f3f6ff"
         id="path877" />
      <path
         inkscape:connector-curvature="0"
         d="M 422.76,458.98 V 512 H 256 v -88.8 h 130.98 c 19.76,0 35.78,16.02 35.78,35.78 z"
         fill="#cddbf9"
         id="path879" />
    </g>
  </g>
</svg>
